<?xml version="1.0" encoding="UTF-8" standalone="no"?>
<!DOCTYPE svg PUBLIC "-//W3C//DTD SVG 1.1//EN" "http://www.w3.org/Graphics/SVG/1.1/DTD/svg11.dtd">
<!-- Generated by Microsoft Visio, SVG Export overHead_Transmission_fault3.svg Page-1 -->
<svg xmlns="http://www.w3.org/2000/svg" xmlns:xlink="http://www.w3.org/1999/xlink" xmlns:ev="http://www.w3.org/2001/xml-events"
		xmlns:v="http://schemas.microsoft.com/visio/2003/SVGExtensions/" width="11.2275in" height="6.23647in"
		viewBox="0 0 808.381 449.026" xml:space="preserve" color-interpolation-filters="sRGB" class="st10">
	<v:documentProperties v:langID="4105" v:viewMarkup="false"/>

	<style type="text/css">
	<![CDATA[
		.st1 {visibility:visible}
		.st2 {fill:#5b9bd5;fill-opacity:0.22;filter:url(#filter_2);stroke:#5b9bd5;stroke-opacity:0.22}
		.st3 {fill:#bdd7ee;stroke:#000000;stroke-width:0.75}
		.st4 {fill:#000000;font-family:Calibri;font-size:1.00001em}
		.st5 {font-size:1em}
		.st6 {marker-end:url(#mrkr4-21);stroke:#000000;stroke-linecap:round;stroke-linejoin:round;stroke-width:1}
		.st7 {fill:#000000;fill-opacity:1;stroke:#000000;stroke-opacity:1;stroke-width:0.28409090909091}
		.st8 {stroke:#000000;stroke-linecap:round;stroke-linejoin:round;stroke-width:1}
		.st9 {marker-start:url(#mrkr5-61);stroke:#000000;stroke-linecap:round;stroke-linejoin:round;stroke-width:1}
		.st10 {fill:none;fill-rule:evenodd;font-size:12px;overflow:visible;stroke-linecap:square;stroke-miterlimit:3}
	]]>
	</style>

	<defs id="Markers">
		<g id="lend4">
			<path d="M 2 1 L 0 0 L 2 -1 L 2 1 " style="stroke:none"/>
		</g>
		<marker id="mrkr4-21" class="st7" v:arrowType="4" v:arrowSize="2" v:setback="7.04" refX="-7.04" orient="auto"
				markerUnits="strokeWidth" overflow="visible">
			<use xlink:href="#lend4" transform="scale(-3.52,-3.52) "/>
		</marker>
		<g id="lend5">
			<path d="M 2 1 L 0 0 L 1.98117 -0.993387 C 1.67173 -0.364515 1.67301 0.372641 1.98465 1.00043 " style="stroke:none"/>
		</g>
		<marker id="mrkr5-61" class="st7" v:arrowType="5" v:arrowSize="2" v:setback="5.8" refX="5.8" orient="auto"
				markerUnits="strokeWidth" overflow="visible">
			<use xlink:href="#lend5" transform="scale(3.52) "/>
		</marker>
	</defs>
	<defs id="Filters">
		<filter id="filter_2">
			<feGaussianBlur stdDeviation="2"/>
		</filter>
	</defs>
	<g v:mID="0" v:index="1" v:groupContext="foregroundPage">
		<title>Page-1</title>
		<v:pageProperties v:drawingScale="1" v:pageScale="1" v:drawingUnits="19" v:shadowOffsetX="9" v:shadowOffsetY="-9"/>
		<v:layer v:name="Connector" v:index="0"/>
		<g id="group1001-1" transform="translate(17.1603,-5.3478)" v:mID="1001" v:groupContext="group">
			<title>Sheet.1001</title>
			<g id="shape1-2" v:mID="1" v:groupContext="shape" transform="translate(235.394,-393.064)">
				<title>Rectangle.41</title>
				<desc>Over-Head Transmission Line Fault Classification</desc>
				<v:userDefs>
					<v:ud v:nameU="visVersion" v:val="VT0(15):26"/>
				</v:userDefs>
				<v:textBlock v:margins="rect(4,4,4,4)"/>
				<v:textRect cx="63.3375" cy="424.42" width="126.68" height="49.2119"/>
				<g id="shadow1-3" v:groupContext="shadow" v:shadowOffsetX="0.345598" v:shadowOffsetY="-1.97279" v:shadowType="1"
						transform="matrix(1,0,0,1,0.345598,1.97279)" class="st1">
					<rect x="0" y="399.814" width="126.675" height="49.2119" class="st2"/>
				</g>
				<rect x="0" y="399.814" width="126.675" height="49.2119" class="st3"/>
				<text x="36.99" y="413.62" class="st4" v:langID="4105"><v:paragraph v:horizAlign="1"/><v:tabList/>Over-Head <tspan
							x="6.47" dy="1.2em" class="st5">Transmission Line Fault </tspan><tspan x="31.49" dy="1.2em" class="st5">Classification</tspan></text>			</g>
			<g id="shape2-10" v:mID="2" v:groupContext="shape" transform="translate(7.99361E-15,-321.064)">
				<title>Rectangle.2</title>
				<desc>Transient Faults</desc>
				<v:userDefs>
					<v:ud v:nameU="visVersion" v:val="VT0(15):26"/>
				</v:userDefs>
				<v:textBlock v:margins="rect(4,4,4,4)"/>
				<v:textRect cx="55.6386" cy="431.026" width="111.28" height="36"/>
				<g id="shadow2-11" v:groupContext="shadow" v:shadowOffsetX="0.345598" v:shadowOffsetY="-1.97279" v:shadowType="1"
						transform="matrix(1,0,0,1,0.345598,1.97279)" class="st1">
					<rect x="0" y="413.026" width="111.277" height="36" class="st2"/>
				</g>
				<rect x="0" y="413.026" width="111.277" height="36" class="st3"/>
				<text x="16.85" y="434.63" class="st4" v:langID="4105"><v:paragraph v:horizAlign="1"/><v:tabList/>Transient Faults</text>			</g>
			<g id="shape4-16" v:mID="4" v:groupContext="shape" v:layerMember="0" transform="translate(298.731,-393.064)">
				<title>Dynamic connector.44</title>
				<path d="M0 449.03 L0 462.53 L-243.09 462.53 L-243.09 477.99" class="st6"/>
			</g>
			<g id="shape5-22" v:mID="5" v:groupContext="shape" v:layerMember="0" transform="translate(298.731,-393.064)">
				<title>Dynamic connector.45</title>
				<path d="M0 449.03 L0 462.53 L210.58 462.53 L210.58 477.99" class="st6"/>
			</g>
			<g id="shape6-27" v:mID="6" v:groupContext="shape" transform="translate(44.9389,-262.491)">
				<title>Rectangle.46</title>
				<desc>Tree temporary contact</desc>
				<v:userDefs>
					<v:ud v:nameU="visVersion" v:val="VT0(15):26"/>
				</v:userDefs>
				<v:textBlock v:margins="rect(4,4,4,4)"/>
				<v:textRect cx="55.6386" cy="431.026" width="111.28" height="36"/>
				<g id="shadow6-28" v:groupContext="shadow" v:shadowOffsetX="0.345598" v:shadowOffsetY="-1.97279" v:shadowType="1"
						transform="matrix(1,0,0,1,0.345598,1.97279)" class="st1">
					<rect x="0" y="413.026" width="111.277" height="36" class="st2"/>
				</g>
				<rect x="0" y="413.026" width="111.277" height="36" class="st3"/>
				<text x="17.42" y="427.43" class="st4" v:langID="4105"><v:paragraph v:horizAlign="1"/><v:tabList/>Tree temporary <tspan
							x="37.35" dy="1.2em" class="st5">contact</tspan></text>			</g>
			<g id="shape7-34" v:mID="7" v:groupContext="shape" transform="translate(44.9389,-215.037)">
				<title>Rectangle.47</title>
				<desc>Animal contact</desc>
				<v:userDefs>
					<v:ud v:nameU="visVersion" v:val="VT0(15):26"/>
				</v:userDefs>
				<v:textBlock v:margins="rect(4,4,4,4)"/>
				<v:textRect cx="55.6386" cy="431.026" width="111.28" height="36"/>
				<g id="shadow7-35" v:groupContext="shadow" v:shadowOffsetX="0.345598" v:shadowOffsetY="-1.97279" v:shadowType="1"
						transform="matrix(1,0,0,1,0.345598,1.97279)" class="st1">
					<rect x="0" y="413.026" width="111.277" height="36" class="st2"/>
				</g>
				<rect x="0" y="413.026" width="111.277" height="36" class="st3"/>
				<text x="18.95" y="434.63" class="st4" v:langID="4105"><v:paragraph v:horizAlign="1"/><v:tabList/>Animal contact</text>			</g>
			<g id="shape8-40" v:mID="8" v:groupContext="shape" transform="translate(44.9389,-167.582)">
				<title>Rectangle.48</title>
				<desc>Lightining</desc>
				<v:userDefs>
					<v:ud v:nameU="visVersion" v:val="VT0(15):26"/>
				</v:userDefs>
				<v:textBlock v:margins="rect(4,4,4,4)"/>
				<v:textRect cx="55.6386" cy="431.026" width="111.28" height="36"/>
				<g id="shadow8-41" v:groupContext="shadow" v:shadowOffsetX="0.345598" v:shadowOffsetY="-1.97279" v:shadowType="1"
						transform="matrix(1,0,0,1,0.345598,1.97279)" class="st1">
					<rect x="0" y="413.026" width="111.277" height="36" class="st2"/>
				</g>
				<rect x="0" y="413.026" width="111.277" height="36" class="st3"/>
				<text x="31.87" y="434.63" class="st4" v:langID="4105"><v:paragraph v:horizAlign="1"/><v:tabList/>Lightining</text>			</g>
			<g id="shape9-46" v:mID="9" v:groupContext="shape" transform="translate(44.9389,-120.127)">
				<title>Rectangle.49</title>
				<desc>Storm leads to phases’ clash</desc>
				<v:userDefs>
					<v:ud v:nameU="visVersion" v:val="VT0(15):26"/>
				</v:userDefs>
				<v:textBlock v:margins="rect(4,4,4,4)"/>
				<v:textRect cx="55.6386" cy="431.026" width="111.28" height="36"/>
				<g id="shadow9-47" v:groupContext="shadow" v:shadowOffsetX="0.345598" v:shadowOffsetY="-1.97279" v:shadowType="1"
						transform="matrix(1,0,0,1,0.345598,1.97279)" class="st1">
					<rect x="0" y="413.026" width="111.277" height="36" class="st2"/>
				</g>
				<rect x="0" y="413.026" width="111.277" height="36" class="st3"/>
				<text x="20.2" y="427.43" class="st4" v:langID="4105"><v:paragraph v:horizAlign="1"/><v:tabList/>Storm leads to <tspan
							x="23.64" dy="1.2em" class="st5">phases</tspan>’ clash</text>			</g>
			<g id="shape11-53" v:mID="11" v:groupContext="shape" v:layerMember="0" transform="translate(55.6386,-321.064)">
				<title>Dynamic connector.56</title>
				<path d="M0 449.03 L0 462.53 L-42.8 462.53 L-42.8 631.96" class="st8"/>
			</g>
			<g id="shape12-56" v:mID="12" v:groupContext="shape" v:layerMember="0" transform="translate(44.9389,-271.527)">
				<title>Dynamic connector.57</title>
				<path d="M-5.8 440.05 L-6.16 440.05 L-32.1 439.99" class="st9"/>
			</g>
			<g id="shape13-62" v:mID="13" v:groupContext="shape" v:layerMember="0" transform="translate(44.9389,-241.05)">
				<title>Dynamic connector.58</title>
				<path d="M-5.79 457.39 L-6.15 457.42 L-32.1 459.01" class="st9"/>
			</g>
			<g id="shape14-67" v:mID="14" v:groupContext="shape" v:layerMember="0" transform="translate(44.9389,-176.823)">
				<title>Dynamic connector.59</title>
				<path d="M-5.8 440.18 L-6.16 440.17 L-32.1 439.78" class="st9"/>
			</g>
			<g id="shape15-72" v:mID="15" v:groupContext="shape" v:layerMember="0" transform="translate(44.9389,-129.127)">
				<title>Dynamic connector.60</title>
				<path d="M-5.8 440.03 L-6.16 440.03 L-32.1 440.03" class="st9"/>
			</g>
			<g id="shape16-77" v:mID="16" v:groupContext="shape" v:layerMember="0" transform="translate(509.307,-307.564)">
				<title>Dynamic connector.61</title>
				<path d="M0 449.03 L-226.83 449.03 L-226.83 464.49" class="st6"/>
			</g>
			<g id="shape17-82" v:mID="17" v:groupContext="shape" transform="translate(226.834,-249.064)">
				<title>Rectangle.63</title>
				<desc>Open Circuit</desc>
				<v:userDefs>
					<v:ud v:nameU="visVersion" v:val="VT0(15):26"/>
				</v:userDefs>
				<v:textBlock v:margins="rect(4,4,4,4)"/>
				<v:textRect cx="55.6386" cy="431.026" width="111.28" height="36"/>
				<g id="shadow17-83" v:groupContext="shadow" v:shadowOffsetX="0.345598" v:shadowOffsetY="-1.97279" v:shadowType="1"
						transform="matrix(1,0,0,1,0.345598,1.97279)" class="st1">
					<rect x="0" y="413.026" width="111.277" height="36" class="st2"/>
				</g>
				<rect x="0" y="413.026" width="111.277" height="36" class="st3"/>
				<text x="25.28" y="434.63" class="st4" v:langID="4105"><v:paragraph v:horizAlign="1"/><v:tabList/>Open Circuit</text>			</g>
			<g id="shape18-88" v:mID="18" v:groupContext="shape" transform="translate(487.908,-249.064)">
				<title>Rectangle.64</title>
				<desc>Short Circuit</desc>
				<v:userDefs>
					<v:ud v:nameU="visVersion" v:val="VT0(15):26"/>
				</v:userDefs>
				<v:textBlock v:margins="rect(4,4,4,4)"/>
				<v:textRect cx="55.6386" cy="431.026" width="111.28" height="36"/>
				<g id="shadow18-89" v:groupContext="shadow" v:shadowOffsetX="0.345598" v:shadowOffsetY="-1.97279" v:shadowType="1"
						transform="matrix(1,0,0,1,0.345598,1.97279)" class="st1">
					<rect x="0" y="413.026" width="111.277" height="36" class="st2"/>
				</g>
				<rect x="0" y="413.026" width="111.277" height="36" class="st3"/>
				<text x="25.36" y="434.63" class="st4" v:langID="4105"><v:paragraph v:horizAlign="1"/><v:tabList/>Short Circuit</text>			</g>
			<g id="shape19-94" v:mID="19" v:groupContext="shape" v:layerMember="0" transform="translate(509.307,-323.314)">
				<title>Dynamic connector.66</title>
				<path d="M0 449.03 L0 464.78 L34.24 464.78 L34.24 480.24" class="st6"/>
			</g>
			<g id="shape20-99" v:mID="20" v:groupContext="shape" transform="translate(164.776,-193.287)">
				<title>Rectangle.67</title>
				<desc>One Open Phase</desc>
				<v:userDefs>
					<v:ud v:nameU="visVersion" v:val="VT0(15):26"/>
				</v:userDefs>
				<v:textBlock v:margins="rect(4,4,4,4)"/>
				<v:textRect cx="55.6386" cy="431.026" width="111.28" height="36"/>
				<g id="shadow20-100" v:groupContext="shadow" v:shadowOffsetX="0.345598" v:shadowOffsetY="-1.97279" v:shadowType="1"
						transform="matrix(1,0,0,1,0.345598,1.97279)" class="st1">
					<rect x="0" y="413.026" width="111.277" height="36" class="st2"/>
				</g>
				<rect x="0" y="413.026" width="111.277" height="36" class="st3"/>
				<text x="15.09" y="434.63" class="st4" v:langID="4105"><v:paragraph v:horizAlign="1"/><v:tabList/>One Open Phase</text>			</g>
			<g id="shape21-105" v:mID="21" v:groupContext="shape" transform="translate(288.893,-193.287)">
				<title>Rectangle.68</title>
				<desc>Two Open Phases</desc>
				<v:userDefs>
					<v:ud v:nameU="visVersion" v:val="VT0(15):26"/>
				</v:userDefs>
				<v:textBlock v:margins="rect(4,4,4,4)"/>
				<v:textRect cx="55.6386" cy="431.026" width="111.28" height="36"/>
				<g id="shadow21-106" v:groupContext="shadow" v:shadowOffsetX="0.345598" v:shadowOffsetY="-1.97279" v:shadowType="1"
						transform="matrix(1,0,0,1,0.345598,1.97279)" class="st1">
					<rect x="0" y="413.026" width="111.277" height="36" class="st2"/>
				</g>
				<rect x="0" y="413.026" width="111.277" height="36" class="st3"/>
				<text x="12.48" y="434.63" class="st4" v:langID="4105"><v:paragraph v:horizAlign="1"/><v:tabList/>Two Open Phases</text>			</g>
			<g id="shape22-111" v:mID="22" v:groupContext="shape" v:layerMember="0" transform="translate(282.473,-249.064)">
				<title>Dynamic connector.69</title>
				<path d="M0 449.03 L0 455.78 L-62.06 455.78 L-62.06 461.76" class="st6"/>
			</g>
			<g id="shape23-116" v:mID="23" v:groupContext="shape" v:layerMember="0" transform="translate(282.473,-249.064)">
				<title>Dynamic connector.70</title>
				<path d="M0 449.03 L0 455.78 L62.06 455.78 L62.06 461.76" class="st6"/>
			</g>
			<g id="shape24-121" v:mID="24" v:groupContext="shape" transform="translate(316.712,-120.127)">
				<title>Rectangle.71</title>
				<desc>Phases Fault</desc>
				<v:userDefs>
					<v:ud v:nameU="visVersion" v:val="VT0(15):26"/>
				</v:userDefs>
				<v:textBlock v:margins="rect(4,4,4,4)"/>
				<v:textRect cx="55.6386" cy="431.026" width="111.28" height="36"/>
				<g id="shadow24-122" v:groupContext="shadow" v:shadowOffsetX="0.345598" v:shadowOffsetY="-1.97279" v:shadowType="1"
						transform="matrix(1,0,0,1,0.345598,1.97279)" class="st1">
					<rect x="0" y="413.026" width="111.277" height="36" class="st2"/>
				</g>
				<rect x="0" y="413.026" width="111.277" height="36" class="st3"/>
				<text x="25.31" y="434.63" class="st4" v:langID="4105"><v:paragraph v:horizAlign="1"/><v:tabList/>Phases Fault</text>			</g>
			<g id="shape25-127" v:mID="25" v:groupContext="shape" transform="translate(487.908,-120.127)">
				<title>Rectangle.72</title>
				<desc>Ground Fault</desc>
				<v:userDefs>
					<v:ud v:nameU="visVersion" v:val="VT0(15):26"/>
				</v:userDefs>
				<v:textBlock v:margins="rect(4,4,4,4)"/>
				<v:textRect cx="55.6386" cy="431.026" width="111.28" height="36"/>
				<g id="shadow25-128" v:groupContext="shadow" v:shadowOffsetX="0.345598" v:shadowOffsetY="-1.97279" v:shadowType="1"
						transform="matrix(1,0,0,1,0.345598,1.97279)" class="st1">
					<rect x="0" y="413.026" width="111.277" height="36" class="st2"/>
				</g>
				<rect x="0" y="413.026" width="111.277" height="36" class="st3"/>
				<text x="23.61" y="434.63" class="st4" v:langID="4105"><v:paragraph v:horizAlign="1"/><v:tabList/>Ground Fault</text>			</g>
			<g id="shape26-133" v:mID="26" v:groupContext="shape" v:layerMember="0" transform="translate(543.546,-249.064)">
				<title>Dynamic connector.73</title>
				<path d="M0 449.03 L0 518.78 L-171.2 518.78 L-171.2 534.92" class="st6"/>
			</g>
			<g id="shape27-138" v:mID="27" v:groupContext="shape" v:layerMember="0" transform="translate(534.546,-156.127)">
				<title>Dynamic connector.74</title>
				<path d="M9 443.23 L9 442.87 L9 422.84" class="st9"/>
			</g>
			<g id="shape28-143" v:mID="28" v:groupContext="shape" transform="translate(166.916,-60.0637)">
				<title>Rectangle.75</title>
				<desc>Symmetrical</desc>
				<v:userDefs>
					<v:ud v:nameU="visVersion" v:val="VT0(15):26"/>
				</v:userDefs>
				<v:textBlock v:margins="rect(4,4,4,4)"/>
				<v:textRect cx="55.6386" cy="431.026" width="111.28" height="36"/>
				<g id="shadow28-144" v:groupContext="shadow" v:shadowOffsetX="0.345598" v:shadowOffsetY="-1.97279" v:shadowType="1"
						transform="matrix(1,0,0,1,0.345598,1.97279)" class="st1">
					<rect x="0" y="413.026" width="111.277" height="36" class="st2"/>
				</g>
				<rect x="0" y="413.026" width="111.277" height="36" class="st3"/>
				<text x="25.33" y="434.63" class="st4" v:langID="4105"><v:paragraph v:horizAlign="1"/><v:tabList/>Symmetrical</text>			</g>
			<g id="shape29-149" v:mID="29" v:groupContext="shape" transform="translate(316.712,-60.0637)">
				<title>Rectangle.76</title>
				<desc>Asymmetrical</desc>
				<v:userDefs>
					<v:ud v:nameU="visVersion" v:val="VT0(15):26"/>
				</v:userDefs>
				<v:textBlock v:margins="rect(4,4,4,4)"/>
				<v:textRect cx="55.6386" cy="431.026" width="111.28" height="36"/>
				<g id="shadow29-150" v:groupContext="shadow" v:shadowOffsetX="0.345598" v:shadowOffsetY="-1.97279" v:shadowType="1"
						transform="matrix(1,0,0,1,0.345598,1.97279)" class="st1">
					<rect x="0" y="413.026" width="111.277" height="36" class="st2"/>
				</g>
				<rect x="0" y="413.026" width="111.277" height="36" class="st3"/>
				<text x="22.27" y="434.63" class="st4" v:langID="4105"><v:paragraph v:horizAlign="1"/><v:tabList/>Asymmetrical</text>			</g>
			<g id="shape30-155" v:mID="30" v:groupContext="shape" v:layerMember="0" transform="translate(363.351,-120.127)">
				<title>Dynamic connector.77</title>
				<path d="M9 449.03 L9 466.05" class="st6"/>
			</g>
			<g id="shape31-160" v:mID="31" v:groupContext="shape" v:layerMember="0" transform="translate(372.351,-120.127)">
				<title>Dynamic connector.78</title>
				<path d="M0 449.03 L0 462.53 L-149.8 462.53 L-149.8 466.05" class="st6"/>
			</g>
			<g id="shape32-165" v:mID="32" v:groupContext="shape" transform="translate(166.916,0)">
				<title>Rectangle.79</title>
				<desc>LLL</desc>
				<v:userDefs>
					<v:ud v:nameU="visVersion" v:val="VT0(15):26"/>
				</v:userDefs>
				<v:textBlock v:margins="rect(4,4,4,4)"/>
				<v:textRect cx="55.6386" cy="431.026" width="111.28" height="36"/>
				<g id="shadow32-166" v:groupContext="shadow" v:shadowOffsetX="0.345598" v:shadowOffsetY="-1.97279" v:shadowType="1"
						transform="matrix(1,0,0,1,0.345598,1.97279)" class="st1">
					<rect x="0" y="413.026" width="111.277" height="36" class="st2"/>
				</g>
				<rect x="0" y="413.026" width="111.277" height="36" class="st3"/>
				<text x="48.07" y="434.63" class="st4" v:langID="4105"><v:paragraph v:horizAlign="1"/><v:tabList/>LLL</text>			</g>
			<g id="shape33-171" v:mID="33" v:groupContext="shape" transform="translate(316.712,0)">
				<title>Rectangle.80</title>
				<desc>LL</desc>
				<v:userDefs>
					<v:ud v:nameU="visVersion" v:val="VT0(15):26"/>
				</v:userDefs>
				<v:textBlock v:margins="rect(4,4,4,4)"/>
				<v:textRect cx="55.6386" cy="431.026" width="111.28" height="36"/>
				<g id="shadow33-172" v:groupContext="shadow" v:shadowOffsetX="0.345598" v:shadowOffsetY="-1.97279" v:shadowType="1"
						transform="matrix(1,0,0,1,0.345598,1.97279)" class="st1">
					<rect x="0" y="413.026" width="111.277" height="36" class="st2"/>
				</g>
				<rect x="0" y="413.026" width="111.277" height="36" class="st3"/>
				<text x="50.59" y="434.63" class="st4" v:langID="4105"><v:paragraph v:horizAlign="1"/><v:tabList/>LL</text>			</g>
			<g id="shape34-177" v:mID="34" v:groupContext="shape" v:layerMember="0" transform="translate(213.554,-60.0637)">
				<title>Dynamic connector.81</title>
				<path d="M9 449.03 L9 466.05" class="st6"/>
			</g>
			<g id="shape35-182" v:mID="35" v:groupContext="shape" v:layerMember="0" transform="translate(363.351,-60.0637)">
				<title>Dynamic connector.82</title>
				<path d="M9 449.03 L9 466.05" class="st6"/>
			</g>
			<g id="shape36-187" v:mID="36" v:groupContext="shape" transform="translate(436.549,-60.0637)">
				<title>Rectangle.83</title>
				<desc>LG</desc>
				<v:userDefs>
					<v:ud v:nameU="visVersion" v:val="VT0(15):26"/>
				</v:userDefs>
				<v:textBlock v:margins="rect(4,4,4,4)"/>
				<v:textRect cx="55.6386" cy="431.026" width="111.28" height="36"/>
				<g id="shadow36-188" v:groupContext="shadow" v:shadowOffsetX="0.345598" v:shadowOffsetY="-1.97279" v:shadowType="1"
						transform="matrix(1,0,0,1,0.345598,1.97279)" class="st1">
					<rect x="0" y="413.026" width="111.277" height="36" class="st2"/>
				</g>
				<rect x="0" y="413.026" width="111.277" height="36" class="st3"/>
				<text x="49.33" y="434.63" class="st4" v:langID="4105"><v:paragraph v:horizAlign="1"/><v:tabList/>LG</text>			</g>
			<g id="shape37-193" v:mID="37" v:groupContext="shape" transform="translate(556.386,-60.0637)">
				<title>Rectangle.84</title>
				<desc>LLG</desc>
				<v:userDefs>
					<v:ud v:nameU="visVersion" v:val="VT0(15):26"/>
				</v:userDefs>
				<v:textBlock v:margins="rect(4,4,4,4)"/>
				<v:textRect cx="55.6386" cy="431.026" width="111.28" height="36"/>
				<g id="shadow37-194" v:groupContext="shadow" v:shadowOffsetX="0.345598" v:shadowOffsetY="-1.97279" v:shadowType="1"
						transform="matrix(1,0,0,1,0.345598,1.97279)" class="st1">
					<rect x="0" y="413.026" width="111.277" height="36" class="st2"/>
				</g>
				<rect x="0" y="413.026" width="111.277" height="36" class="st3"/>
				<text x="46.81" y="434.63" class="st4" v:langID="4105"><v:paragraph v:horizAlign="1"/><v:tabList/>LLG</text>			</g>
			<g id="shape38-199" v:mID="38" v:groupContext="shape" transform="translate(676.223,-60.0637)">
				<title>Rectangle.85</title>
				<desc>LLLG</desc>
				<v:userDefs>
					<v:ud v:nameU="visVersion" v:val="VT0(15):26"/>
				</v:userDefs>
				<v:textBlock v:margins="rect(4,4,4,4)"/>
				<v:textRect cx="55.6386" cy="431.026" width="111.28" height="36"/>
				<g id="shadow38-200" v:groupContext="shadow" v:shadowOffsetX="0.345598" v:shadowOffsetY="-1.97279" v:shadowType="1"
						transform="matrix(1,0,0,1,0.345598,1.97279)" class="st1">
					<rect x="0" y="413.026" width="111.277" height="36" class="st2"/>
				</g>
				<rect x="0" y="413.026" width="111.277" height="36" class="st3"/>
				<text x="44.29" y="434.63" class="st4" v:langID="4105"><v:paragraph v:horizAlign="1"/><v:tabList/>LLLG</text>			</g>
			<g id="shape39-205" v:mID="39" v:groupContext="shape" v:layerMember="0" transform="translate(543.546,-120.127)">
				<title>Dynamic connector.86</title>
				<path d="M0 449.03 L0 462.53 L-51.36 462.53 L-51.36 466.05" class="st6"/>
			</g>
			<g id="shape40-210" v:mID="40" v:groupContext="shape" v:layerMember="0" transform="translate(543.546,-110.346)">
				<title>Dynamic connector.87</title>
				<path d="M0 452.74 L68.48 452.74 L68.48 456.27" class="st6"/>
			</g>
			<g id="shape41-215" v:mID="41" v:groupContext="shape" v:layerMember="0" transform="translate(731.861,-92.3456)">
				<title>Dynamic connector.88</title>
				<path d="M0 439.51 L0 439.15 L0 434.74 L-119.84 434.74" class="st9"/>
			</g>
			<g id="shape42-220" v:mID="42" v:groupContext="shape" transform="translate(413.01,-192.814)">
				<title>Rectangle.153</title>
				<desc>Three Open Phases</desc>
				<v:userDefs>
					<v:ud v:nameU="visVersion" v:val="VT0(15):26"/>
				</v:userDefs>
				<v:textBlock v:margins="rect(4,4,4,4)"/>
				<v:textRect cx="55.6386" cy="431.026" width="111.28" height="36"/>
				<g id="shadow42-221" v:groupContext="shadow" v:shadowOffsetX="0.345598" v:shadowOffsetY="-1.97279" v:shadowType="1"
						transform="matrix(1,0,0,1,0.345598,1.97279)" class="st1">
					<rect x="0" y="413.026" width="111.277" height="36" class="st2"/>
				</g>
				<rect x="0" y="413.026" width="111.277" height="36" class="st3"/>
				<text x="8.72" y="434.63" class="st4" v:langID="4105"><v:paragraph v:horizAlign="1"/><v:tabList/>Three Open Phases</text>			</g>
			<g id="shape43-226" v:mID="43" v:groupContext="shape" v:layerMember="0" transform="translate(344.531,-244.564)">
				<title>Dynamic connector.154</title>
				<path d="M0 451.28 L124.12 451.28 L124.12 457.74" class="st6"/>
			</g>
			<g id="shape3-231" v:mID="3" v:groupContext="shape" transform="translate(453.668,-321.064)">
				<title>Rectangle.43</title>
				<desc>Intransient Faults</desc>
				<v:userDefs>
					<v:ud v:nameU="visVersion" v:val="VT0(15):26"/>
				</v:userDefs>
				<v:textBlock v:margins="rect(4,4,4,4)"/>
				<v:textRect cx="55.6386" cy="431.026" width="111.28" height="36"/>
				<g id="shadow3-232" v:groupContext="shadow" v:shadowOffsetX="0.345598" v:shadowOffsetY="-1.97279" v:shadowType="1"
						transform="matrix(1,0,0,1,0.345598,1.97279)" class="st1">
					<rect x="0" y="413.026" width="111.277" height="36" class="st2"/>
				</g>
				<rect x="0" y="413.026" width="111.277" height="36" class="st3"/>
				<text x="13.1" y="434.63" class="st4" v:langID="4105"><v:paragraph v:horizAlign="1"/><v:tabList/>Intransient Faults</text>			</g>
		</g>
	</g>
</svg>
